# xmcd
#
# Track frame offsets:
#	150
#	16970
#	36823
#	66917
#	81404
#	91510
#	115635
#	134764
#	148318
#	172731
#	189654
#	203751
#	217029
#	231732
#	250157
#	270775
#	285736
#	301244
#	315618
#
# Disc length: 4390 seconds
#
# Revision: 2
# Processed by: cddbd v1.4PL0 Copyright (c) Steve Scherf et al.
# Submitted via: EasyCDDAExtractor 5.0.6
#
DISCID=12112413
DTITLE=Various Artist - Binky Records Sampler
DYEAR=1900
DGENRE=Country
TTITLE0=Tom Skinner - Years In The Makin'
TTITLE1=Greg Jacobs - Patient Man
TTITLE2=Parker/Morris/Skinner - Guitar Man
TTITLE3=Bob Childers - Dance With The Gypsies
TTITLE4=Tom Skinner - I Take My Own breath Away
TTITLE5=Greg Jacobs - South Of Muskogee Town
TTITLE6=Tom Skinner - Whole Lot Of Your Soul
TTITLE7=Bob Childers - Restless Spirits
TTITLE8=Tom Skinner - Skyline Radio
TTITLE9=Mike West - This Town
TTITLE10=Two Tone Malone - Christina
TTITLE11=Mike West - Garden Of Eden
TTITLE12=Myshkin - Catch Up
TTITLE13=Mike West - Bryan, Texas
TTITLE14=Two Tone Malone - Saved By Your Love
TTITLE15=Mike West - American Girl
TTITLE16=Kevin Civello - Faith
TTITLE17=Tory Voodoo - Rubie's Dreams
TTITLE18=Tory Voodoo - All Things Are Silent
EXTD=
EXTT0=
EXTT1=
EXTT2=
EXTT3=
EXTT4=
EXTT5=
EXTT6=
EXTT7=
EXTT8=
EXTT9=
EXTT10=
EXTT11=
EXTT12=
EXTT13=
EXTT14=
EXTT15=
EXTT16=
EXTT17=
EXTT18=
PLAYORDER=
